<svg width="931" height="346" viewBox="0 0 931 346" fill="none" xmlns="http://www.w3.org/2000/svg">
<path fill-rule="evenodd" clip-rule="evenodd" d="M520.384 146.188H374.13L373.549 147.319L372.674 149.027H366.36L351.498 178H299.621L389.326 4.70729H447.148L520.384 146.188ZM389.596 104.35H446.878L419.587 51.5508H416.885L389.596 104.35Z" fill="white"/>
<path d="M931 49.3846H804.009V68.8807H906.142V113.556H804.009V133.323H931V146.188H848.803V178H799.463V146.188H758.077V4.70729H931V49.3846Z" fill="white"/>
<path d="M45.9343 146.143C42.9181 146.784 39.9447 147.545 37.0198 148.433V148.409L34.3 149.294C34.2264 149.318 34.1568 149.342 34.1133 149.357L33.9976 149.396C33.9976 149.396 33.9917 149.398 33.9813 149.402C33.9752 149.404 33.9641 149.408 33.9529 149.412C22.6445 153.128 12.1755 158.675 3.17243 166.461L2.30575 167.222L2.1454 167.364L2.12916 167.378L2.11495 167.393L1.95461 167.539C1.29085 168.149 0.639956 168.77 0 169.398V4.70729H45.9343V146.143Z" fill="white"/>
<path d="M174.133 126.283H176.834L240.059 4.70729H288.695V162.033L280.579 146.188H242.763V104.35H240.059L218.264 146.188H183.979V155.662C179.327 153.049 174.417 150.913 169.334 149.204C157.906 145.117 145.627 143.426 133.033 143.426H131.263L110.907 104.35H108.206V143.426H73.3089C69.5914 143.426 65.9103 143.561 62.2734 143.837V4.70729H110.907L174.133 126.283Z" fill="white"/>
<path d="M647.856 2C661.906 2.00002 674.605 3.80433 685.954 7.41457C697.482 11.0248 707.389 16.26 715.675 23.1193C723.96 29.7981 730.536 38.102 735.399 48.03C740.443 57.958 743.505 69.1504 744.586 81.6056H695.95C694.148 70.5947 689.196 62.2907 681.09 56.6949C672.985 50.9185 661.996 48.03 648.126 48.03H613.812C598.861 48.03 587.241 51.8207 578.956 59.4022C570.85 66.9837 566.798 77.6357 566.798 91.3547C566.798 105.073 570.85 115.724 578.956 123.305C587.241 130.887 598.861 134.677 613.812 134.677H662.176C671.902 134.677 678.567 133.233 682.17 130.345C685.953 127.457 687.845 122.222 687.845 114.64V101.102H744.586V146.188H535.644C531.537 140.836 528.047 134.925 525.187 128.449C520.503 117.438 518.162 105.073 518.162 91.3547C518.162 77.6357 520.324 65.2694 524.647 54.2581C529.15 43.2469 535.456 33.8611 543.561 26.0991C551.847 18.3371 561.754 12.38 573.282 8.22818C584.991 4.0765 598.14 2.00006 612.73 2H647.856Z" fill="white"/>
<path d="M453.411 235.34C464.406 251.264 482.566 261.667 503.107 261.667C517.753 261.667 531.188 256.378 541.679 247.572V343C529.902 343 518.24 340.633 507.36 336.035C496.48 331.436 486.593 324.697 478.266 316.2C469.939 307.704 463.333 297.617 458.827 286.516C454.32 275.415 452 263.516 452 251.5C452 246.068 452.475 240.661 453.411 235.34Z" fill="white"/>
<path d="M503.107 160C524.587 160 542 177.767 542 199.683C542 221.599 524.587 239.366 503.107 239.366C481.627 239.366 464.214 221.599 464.214 199.683C464.214 177.767 481.627 160 503.107 160Z" fill="white"/>
<path d="M133.764 160C143.869 160 152.712 161.386 160.291 164.159C168.051 166.747 174.457 170.536 179.51 175.527C184.743 180.333 188.622 186.156 191.148 192.995C193.855 199.834 195.209 207.413 195.209 215.731H146.485C146.485 212.589 145.403 210.371 143.237 209.077C141.072 207.783 137.102 207.137 131.327 207.137H73.4004C66.5432 207.137 61.6705 207.968 58.7832 209.632C56.0766 211.111 54.7236 213.699 54.7236 217.396C54.7236 221.462 55.9864 224.235 58.5127 225.714C61.0391 227.193 65.7315 227.932 72.5889 227.932H138.636C148.922 227.932 157.854 229.318 165.434 232.091C173.193 234.679 179.69 238.468 184.923 243.459C190.156 248.45 194.036 254.365 196.562 261.204C199.269 268.043 200.623 275.622 200.623 283.94C200.623 292.813 199.269 300.854 196.562 308.063C194.036 315.273 190.156 321.465 184.923 326.641C179.87 331.816 173.464 335.883 165.704 338.841C158.125 341.613 149.283 343 139.178 343H75.5664C64.1977 343 54.2724 341.706 45.791 339.118C37.3095 336.345 30.1809 332.556 24.4062 327.75C18.8123 322.759 14.5718 316.844 11.6846 310.005C8.7973 303.166 7.35356 295.587 7.35352 287.269H56.0771C56.0773 290.411 57.4302 292.629 60.1367 293.923C62.8436 295.217 67.6261 295.863 74.4834 295.863H136.741C142.155 295.863 146.035 295.032 148.381 293.368C150.727 291.705 151.899 289.024 151.899 285.327C151.899 278.488 147.027 275.068 137.282 275.068H68.7988C58.5129 275.068 49.4 273.682 41.46 270.909C33.7004 267.952 27.1139 263.977 21.7002 258.986C16.467 253.996 12.4969 248.08 9.79004 241.241C7.26369 234.402 6.00005 227.008 6 219.06C6 210.187 7.44377 202.146 10.3311 194.937C13.2183 187.728 17.4588 181.535 23.0527 176.359C28.8274 171.184 35.956 167.209 44.4375 164.437C53.0994 161.479 63.0246 160 74.2129 160H133.764Z" fill="white"/>
<path d="M326.164 287.269H328.871L392.211 162.772H440.935V340.228H394.918V264.81H392.211L353.773 340.228H301.261L262.823 264.81H260.116V340.228H214.1V162.772H262.823L326.164 287.269Z" fill="white"/>
<path d="M711.865 208.522H636.073V340.228H590.057V208.522H552.24C552.739 205.648 553 202.694 553 199.683C553 185.202 546.985 172.049 537.296 162.772H711.865V208.522Z" fill="white"/>
<path d="M768.709 228.486H876.983V162.772H923V340.228H876.983V274.236H768.709V340.228H722.692V162.772H768.709V228.486Z" fill="white"/>
</svg>
