<svg width="346" height="346" viewBox="0 0 346 346" fill="none" xmlns="http://www.w3.org/2000/svg">
<path d="M89.2272 142.447C110.484 172.554 145.593 192.222 185.307 192.222C213.622 192.222 239.596 182.223 259.879 165.572V346C237.11 346 214.564 341.525 193.529 332.831C172.494 324.137 153.381 311.394 137.281 295.33C121.182 279.265 108.411 260.194 99.6981 239.205C90.985 218.215 86.5 195.719 86.5 173C86.5 162.731 87.4182 152.507 89.2272 142.447Z" fill="white"/>
<path d="M185.307 0C226.835 0 260.5 33.5915 260.5 75.0287C260.5 116.466 226.835 150.057 185.307 150.057C143.779 150.057 110.114 116.466 110.114 75.0287C110.114 33.5915 143.779 0 185.307 0Z" fill="white"/>
</svg>
